# xmcd CD database file
#
# Track frame offsets:
#	150
#	15887
#	27934
#	50961
#	62166
#	76533
#	91177
#	110737
#	125768
#	137710
#	149088
#	162967
#	177096
#	189441
#	206940
#	220219
#	236609
#	251315
#	262975
#	277626
#
# Disc length: 3883 seconds
#
# Revision: 0
# Processed by: cddbd v1.5.2PL0 Copyright (c) Steve Scherf et al.
# Submitted via: CDex 1.79
#
DISCID=1a0f2914
DTITLE=Ed Bruce - The Tennessean - Cowboys And Dreamers
DYEAR=2000
DGENRE=Country
TTITLE0=Man Made Of Glass
TTITLE1=Star Studded Nights
TTITLE2=Never Take Candy From A Stranger
TTITLE3=Am I Gonna Have To Burn Atlanta Down
TTITLE4=When I Die, Just Let Me Go To Texas
TTITLE5=Love Somebody To Death
TTITLE6=I Can't Seem To Get The Hang Of Telling Her Goodbye
TTITLE7=Wedding Dress
TTITLE8=I've Not Forgot Marie
TTITLE9=There Ain't No Good Chain Gang
TTITLE10=Angeline
TTITLE11=I Really Didn't Have A Thing To Do Today
TTITLE12=The Greatest Love Song
TTITLE13=Kentucky Boy, California Man
TTITLE14=The Family
TTITLE15=Old Wore Out Cowboy
TTITLE16=The Man That Turned My Mama On
TTITLE17=He Brings Your Memory Back Again
TTITLE18=Miracle Express
TTITLE19=Give My Old Memory A Call
EXTD=YEAR: 2000
EXTT0=
EXTT1=
EXTT2=
EXTT3=
EXTT4=
EXTT5=
EXTT6=
EXTT7=
EXTT8=
EXTT9=
EXTT10=
EXTT11=
EXTT12=
EXTT13=
EXTT14=
EXTT15=
EXTT16=
EXTT17=
EXTT18=
EXTT19=
PLAYORDER=
